<?xml version="1.0" encoding="UTF-8"?>
<!DOCTYPE svg PUBLIC "-//W3C//DTD SVG 1.1//EN" "http://www.w3.org/Graphics/SVG/1.1/DTD/svg11.dtd">
<!-- Creator: CorelDRAW -->
<svg xmlns="http://www.w3.org/2000/svg" xml:space="preserve" width="512px" height="512px" style="shape-rendering:geometricPrecision; text-rendering:geometricPrecision; image-rendering:optimizeQuality; fill-rule:evenodd; clip-rule:evenodd"
viewBox="0 0 512 512"
 xmlns:xlink="http://www.w3.org/1999/xlink">
 <defs>
  <style type="text/css">
   <![CDATA[
    .fil0 {fill:#52050D}
    .fil2 {fill:orangered}
    .fil1 {fill:#FFD300}
   ]]>
  </style>
 </defs>
 <g id="Layer_x0020_1">
  <metadata id="CorelCorpID_0Corel-Layer"/>
  <path class="fil0" d="M476.647 504.721l-441.293 0c-19.5483,0 -34.9373,-15.8049 -34.9373,-34.9373 0,-123.44 0,-246.813 0,-370.171 0,-19.5483 15.8049,-34.9373 34.9373,-34.9373l15.7802 0c3.52375,-32.0306 30.6975,-56.9815 63.661,-56.9815 32.9635,0 60.1373,24.9508 63.661,56.9815l13.6278 0c3.33298,-32.2308 30.6026,-57.3973 63.709,-57.3973 32.9652,0 60.5013,25.3157 64.0715,57.3973l13.2644 0c3.52375,-32.0306 30.6975,-56.9815 63.661,-56.9815 32.9635,0 60.1373,24.9508 63.6613,56.9815l16.196 0c19.5483,0 34.9373,15.8049 34.9373,34.9373 0,123.358 0,246.732 0,370.171 0.415843,19.1322 -15.389,34.9373 -34.9373,34.9373zm-250.385 -103.98c-1.66365,0 -3.74315,-0.831685 -4.99096,-2.0795l-54.9017 -54.902c-2.91146,-2.91146 -2.91146,-7.48658 0,-10.398 2.91146,-2.91175 7.48658,-2.91175 10.398,0l49.4946 49.9107 109.388 -109.388c2.91175,-2.91146 7.48658,-2.91146 10.3983,0 2.91146,2.91146 2.91146,7.48658 0,10.398l-114.794 114.379c-1.24809,1.24753 -3.32759,2.0795 -4.99153,2.0795zm127.272 45.3356l-194.652 0c-17.0527,0 -31.1941,-14.1415 -31.1941,-31.1941l0 -156.803c0,-17.0529 14.1415,-31.1941 31.1941,-31.1941l194.652 0c17.0527,0 31.1941,14.1412 31.1941,31.1941l0 156.803c0,17.0527 -14.1415,31.1941 -31.1941,31.1941zm-194.652 -205.05c-9.15052,0 -16.6371,7.48658 -16.6371,16.6371l0 156.803c0,9.15052 7.48658,16.6371 16.6371,16.6371l194.652 0c9.15024,0 16.6368,-7.48658 16.6368,-16.6371l0 -156.387c0,-9.15052 -7.48658,-16.6371 -16.6368,-16.6371l-194.652 0 0 -0.416126zm-92.6496 -176.351l98.3676 0c-3.50192,-23.7699 -24.3363,-42.4242 -48.9739,-42.4242 -24.6688,0 -45.8711,18.3555 -49.3937,42.4242zm49.3937 71.1224c-4.15928,0 -7.48658,-3.32731 -7.48658,-7.48658 0,-4.15928 3.32731,-7.07046 7.48658,-7.07046 25.0169,0 45.5394,-18.6545 48.983,-42.4244 -43.1266,0 -86.2186,0.000283465 -129.256,0.000283465 -11.2297,0 -20.3803,9.15052 -20.3803,20.3803l0 68.6273 482.054 0 0 -68.6276c0,-11.2297 -9.15024,-20.3803 -20.3803,-20.3803l-16.196 0c-3.52403,32.0304 -30.6978,56.9815 -63.6613,56.9815 -4.15928,0 -7.48658,-3.32731 -7.48658,-7.48658 0,-4.15928 3.32731,-7.48658 7.48658,-7.48658 24.8712,0 45.303,-18.4365 48.924,-42.0083 -41.9828,0 -83.9588,0 -125.844,0 -3.52403,32.0306 -30.6978,56.9815 -63.661,56.9815 -4.15928,0 -7.48658,-3.32731 -7.48658,-7.48658 0,-4.15928 3.32731,-7.48658 7.48658,-7.48658 24.8712,0 45.303,-18.4365 48.924,-42.0083l-126.665 0c-3.42595,32.0306 -29.8769,56.9815 -62.8404,56.9815zm91.5486 -71.1224l98.0663 0c-3.3188,-23.9675 -24.2521,-42.84 -49.0331,-42.84 -24.781,0 -45.7143,18.8725 -49.0331,42.84zm140.632 0l98.0232 0c-3.26665,-23.9057 -23.8805,-42.4242 -49.0402,-42.4242 -25.0166,0 -45.5394,18.6542 -48.983,42.4242zm149.221 118.122l-482.054 0 0 286.571c0,11.2297 9.15052,20.3803 20.3803,20.3803l441.293 -0.000283465c11.23,0 20.3803,-9.15052 20.3803,-20.3803l0 -286.57z"/>
  <path class="fil1" d="M226.261 383.272l109.388 -109.388c2.91175,-2.91146 7.48658,-2.91146 10.3983,0 2.91146,2.91146 2.91146,7.48658 0,10.398l-114.794 114.379c-1.24809,1.24753 -3.32759,2.0795 -4.99153,2.0795 -1.66365,0 -3.74315,-0.831685 -4.99096,-2.0795l-54.9017 -54.902c-2.91146,-2.91146 -2.91146,-7.48658 0,-10.398 2.91146,-2.91175 7.48658,-2.91175 10.398,0l49.4946 49.9107zm-67.3793 47.8312l194.652 0c9.15024,0 16.6368,-7.48658 16.6368,-16.6371l0 -156.387c0,-9.15052 -7.48658,-16.6371 -16.6368,-16.6371l-194.652 0 0 -0.416126c-9.15052,0 -16.6371,7.48658 -16.6371,16.6371l0 156.803c0,9.15052 7.48658,16.6371 16.6371,16.6371z"/>
  <path class="fil2" d="M14.9732 167.825l482.054 0 0 -68.6276c0,-11.2297 -9.15024,-20.3803 -20.3803,-20.3803l-16.196 0c-3.52403,32.0304 -30.6978,56.9815 -63.6613,56.9815 -4.15928,0 -7.48658,-3.32731 -7.48658,-7.48658 0,-4.15928 3.32731,-7.48658 7.48658,-7.48658 24.8712,0 45.303,-18.4365 48.924,-42.0083l-125.844 0c-3.52403,32.0306 -30.6978,56.9815 -63.661,56.9815 -4.15928,0 -7.48658,-3.32731 -7.48658,-7.48658 0,-4.15928 3.32731,-7.48658 7.48658,-7.48658 24.8712,0 45.303,-18.4365 48.924,-42.0083l-126.665 0c-3.42595,32.0306 -29.8769,56.9815 -62.8404,56.9815 -4.15928,0 -7.48658,-3.32731 -7.48658,-7.48658 0,-4.15928 3.32731,-7.07046 7.48658,-7.07046 25.0169,0 45.5394,-18.6545 48.983,-42.4244l-129.256 0.000283465c-11.2297,0 -20.3803,9.15052 -20.3803,20.3803l0 68.6273z"/>
  <path class="fil2" d="M497.027 182.798l-482.054 0 0 286.571c0,11.2297 9.15052,20.3803 20.3803,20.3803l441.293 -0.000283465c11.23,0 20.3803,-9.15052 20.3803,-20.3803l0 -286.57zm-143.493 44.0878c17.0527,0 31.1941,14.1412 31.1941,31.1941l0 156.803c0,17.0527 -14.1415,31.1941 -31.1941,31.1941l-194.652 0c-17.0527,0 -31.1941,-14.1415 -31.1941,-31.1941l0 -156.803c0,-17.0529 14.1415,-31.1941 31.1941,-31.1941l194.652 0z"/>
 </g>
</svg>
