<?xml version="1.0" encoding="UTF-8" standalone="no"?> <svg xmlns="http://www.w3.org/2000/svg" width="512" height="512" viewBox="0 0 512 512">    <g>    <g>      <path d="M36,432H476a20,20,0,0,1,20,20v44a0,0,0,0,1,0,0H16a0,0,0,0,1,0,0V452A20,20,0,0,1,36,432Z" fill="#ff9811"/>      <polygon points="320 432 192 432 200 400 312 400 320 432" fill="#a0815c"/>      <path d="M384,264c0,1.66-.05,3.32-.15,4.96A32,32,0,0,0,320,272a31.7,31.7,0,0,1-.59,6.13c.21-2.5.37-5.03.46-7.59.02-.32.03-.65.04-.98v-.02a32,32,0,0,0-63.88,1c-.02.49-.03.97-.03,1.46,0-.49-.01-.97-.03-1.46a32,32,0,0,0-63.88-1v.02c.01.33.02.66.04.98.09,2.56.25,5.09.46,7.59A31.7,31.7,0,0,1,192,272a32,32,0,0,0-63.85-3.04c-.1-1.64-.15-3.3-.15-4.96,0-57.44,57.31-104,128-104S384,206.56,384,264Z" fill="#d80027"/>      <path d="M320,265c0,1.86-.03,3.71-.09,5.54h-.04c.02-.32.03-.65.04-.98v-.02a32,32,0,0,0-63.88,1h-.06a32,32,0,0,0-63.88-1v.02c.01.33.02.66.04.98h-.04c-.06-1.83-.09-3.68-.09-5.54,0-57.44,28.65-104,64-104S320,207.56,320,265Z" fill="#e0e0e2"/>      <polyline points="47 432 63 384 144 384 160 432" fill="#898890"/>      <polyline points="472 432 456 384 375 384 359 432" fill="#898890"/>      <circle cx="408" cy="96" r="48" fill="#ffda44"/>    </g>    <g>      <path d="M477.79,424.06,464.43,384l15.16-45.47a8,8,0,0,0-15.18-5.06L450.23,376H375a8,8,0,0,0-7.59,5.47L353.23,424H326.25l-6.49-25.94A8,8,0,0,0,312,392H264V272a24,24,0,0,1,47.9-2.25c-.09,2.54-.24,5.13-.46,7.7a8,8,0,0,0,6.86,8.6,8.436,8.436,0,0,0,1.12.08,8.006,8.006,0,0,0,7.84-6.46A39.811,39.811,0,0,0,328,272a23.995,23.995,0,0,1,47.88-2.29,8,8,0,0,0,15.95-.26c.11-1.79.17-3.62.17-5.45,0-61.76-61.01-112-136-112S120,202.24,120,264c0,1.83.06,3.66.17,5.45a7.992,7.992,0,0,0,7.85,7.51h.13a8,8,0,0,0,7.97-7.25A23.995,23.995,0,0,1,184,272a39.811,39.811,0,0,0,.74,7.67,8,8,0,0,0,15.82-2.22c-.22-2.57-.37-5.16-.46-7.7A24,24,0,0,1,248,272V392H200a8,8,0,0,0-7.76,6.06L185.75,424H165.77l-14.18-42.53A8,8,0,0,0,144,376H68.77L54.59,333.47a8,8,0,1,0-15.18,5.06L54.57,384,41.23,424H36A28.031,28.031,0,0,0,8,452v44a8,8,0,0,0,8,8H496a8,8,0,0,0,8-8V452A28.033,28.033,0,0,0,477.79,424.06ZM380.77,392h69.46l10.67,32H370.1Zm-9.68-155.21a40.126,40.126,0,0,0-44.7,4.51c-2.75-20.25-9.01-38.91-18.32-54.03a94.286,94.286,0,0,0-9.58-13.04C333.31,184.81,360.44,207.99,371.09,236.79ZM185.61,241.3a40.126,40.126,0,0,0-44.7-4.51c10.65-28.8,37.78-51.98,72.6-62.56a94.286,94.286,0,0,0-9.58,13.04C194.62,202.39,188.36,221.05,185.61,241.3ZM224,232a39.719,39.719,0,0,0-21.8,6.53c2.73-16.11,7.95-30.83,15.36-42.88C228.13,178.47,241.79,169,256,169s27.87,9.47,38.44,26.65c7.41,12.05,12.63,26.77,15.36,42.88a39.842,39.842,0,0,0-53.8,9.5A39.947,39.947,0,0,0,224,232ZM206.25,408h99.5l4,16H202.25ZM68.77,392h69.46l10.67,32H58.1ZM488,488H24V452a12.01,12.01,0,0,1,12-12H476a12.01,12.01,0,0,1,12,12Z"/>      <path d="M23.482,112.983c3.39.229,14.132,1.945,18.861,6.674A8.008,8.008,0,0,0,48,122h.108a8.015,8.015,0,0,0,5.7-2.5c4.988-5.262,10.75-8.55,12.733-8.638A8,8,0,0,0,77.657,99.343a15.124,15.124,0,0,0-10.931-4.484l-.263,0c-7.124.109-14.283,4.824-19.036,8.761-9.629-5.6-21.349-6.508-22.928-6.606a8,8,0,0,0-1.017,15.967Z"/>      <path d="M120.546,77.9c3.385-.328,14.26-.375,19.693,3.525a8,8,0,0,0,4.66,1.5,8.108,8.108,0,0,0,1.412-.125,8.017,8.017,0,0,0,5.222-3.394c4.069-6,9.223-10.18,11.163-10.589a8,8,0,0,0,9.094-13.162,15.133,15.133,0,0,0-11.773-2.605c-7.012,1.262-13.311,7.076-17.363,11.732-10.409-3.962-22.124-2.957-23.695-2.8A8,8,0,0,0,120.546,77.9Z"/>      <path d="M71.109,136.964a8,8,0,0,0,1.77,11.174c2.729,1.983,10.852,9.132,12.325,15.735a8.013,8.013,0,0,0,9.773,6.014c7.032-1.765,13.659-1.451,15.378-.464a8,8,0,0,0,15.55-3.761,15.144,15.144,0,0,0-7.046-9.785c-6.072-3.73-14.642-3.588-20.765-2.813-5.125-9.89-14.531-16.94-15.811-17.87A8,8,0,0,0,71.109,136.964Z"/>      <path d="M408,152a56,56,0,1,0-56-56A56.063,56.063,0,0,0,408,152Zm0-96a40,40,0,1,1-40,40A40.045,40.045,0,0,1,408,56Z"/>      <path d="M408,32a8,8,0,0,0,8-8V16a8,8,0,0,0-16,0v8A8,8,0,0,0,408,32Z"/>      <path d="M400,168v8a8,8,0,0,0,16,0v-8a8,8,0,0,0-16,0Z"/>      <path d="M480,104h8a8,8,0,0,0,0-16h-8a8,8,0,0,0,0,16Z"/>      <path d="M328,104h8a8,8,0,0,0,0-16h-8a8,8,0,0,0,0,16Z"/>      <path d="M458.912,53.088a7.974,7.974,0,0,0,5.657-2.343l5.657-5.656a8,8,0,0,0-11.315-11.315l-5.656,5.657a8,8,0,0,0,5.657,13.657Z"/>      <path d="M351.431,141.255l-5.657,5.656a8,8,0,0,0,11.315,11.315l5.656-5.657a8,8,0,0,0-11.314-11.314Z"/>      <path d="M464.569,141.255a8,8,0,0,0-11.314,11.314l5.656,5.657a8,8,0,0,0,11.315-11.315Z"/>      <path d="M351.431,50.745a8,8,0,0,0,11.314-11.314l-5.656-5.657a8,8,0,0,0-11.315,11.315Z"/>    </g>  </g></svg>